<svg width="22" height="18" viewBox="0 0 22 18" fill="none" xmlns="http://www.w3.org/2000/svg">
<path d="M16.0677 6.14194V6.42379H17.0181V9.58044H17.292V6.42379H18.2435V6.14194H16.0677ZM19.8682 9.19938H19.811L18.7682 6.14194H18.4371L19.6449 9.58269H20.0343L21.2421 6.14194H20.9121L19.8682 9.19938ZM7.8155 7.532H7.7946C7.7186 7.44974 7.62622 7.38521 7.52372 7.3428C7.42122 7.30039 7.31102 7.2811 7.2006 7.28623C6.9122 7.29933 6.63985 7.42597 6.44029 7.63977C6.24073 7.85356 6.12935 8.13803 6.12935 8.4339C6.12935 8.72977 6.24073 9.01423 6.44029 9.22802C6.63985 9.44182 6.9122 9.56846 7.2006 9.58156C7.31236 9.58442 7.42339 9.56231 7.52596 9.51675C7.62854 9.47119 7.72021 9.40329 7.7946 9.31776H7.8155V9.51279H8.3039V6.14194H7.8155V7.532ZM7.2479 9.13287C7.07456 9.12324 6.91191 9.044 6.79517 8.91233C6.67843 8.78066 6.617 8.60715 6.6242 8.42939C6.62037 8.34174 6.63349 8.25419 6.66281 8.17177C6.69213 8.08934 6.73707 8.01368 6.79504 7.94913C6.85301 7.88458 6.92287 7.83242 7.00059 7.79566C7.07831 7.7589 7.16236 7.73825 7.2479 7.73492C7.33262 7.73799 7.41585 7.75863 7.49257 7.7956C7.56929 7.83257 7.63789 7.8851 7.69424 7.95001C7.75058 8.01492 7.7935 8.09087 7.82039 8.17327C7.84728 8.25566 7.85759 8.34279 7.8507 8.42939C7.85727 8.51637 7.8468 8.60383 7.81988 8.68661C7.79297 8.76938 7.75016 8.8458 7.69399 8.91136C7.63781 8.97691 7.5694 9.03028 7.49279 9.06833C7.41618 9.10637 7.33291 9.12832 7.2479 9.13287ZM1.9822 6.14194L0.7568 9.51279H1.3068L1.5829 8.70898H2.9931L3.2692 9.51279H3.8192L2.5927 6.14194H1.9822ZM1.7501 8.21744L2.2726 6.68646H2.2979L2.8226 8.21744H1.7501ZM8.58 8.38091V9.50828H9.0684V8.38091C9.05634 8.29374 9.06409 8.20489 9.09105 8.12129C9.118 8.0377 9.16344 7.96161 9.22381 7.89897C9.28418 7.83634 9.35786 7.78884 9.43908 7.76019C9.52031 7.73154 9.6069 7.7225 9.6921 7.7338C9.75194 7.73232 9.81174 7.73799 9.8703 7.75071V7.31554C9.79282 7.29435 9.71288 7.2841 9.6327 7.2851C9.49013 7.2734 9.34679 7.29385 9.21276 7.34503C9.07873 7.39621 8.95727 7.47686 8.85692 7.58132C8.75658 7.68577 8.67978 7.81149 8.63194 7.94964C8.58409 8.08778 8.56637 8.23499 8.58 8.38091ZM4.9522 7.2851C4.82698 7.28225 4.70247 7.30503 4.58595 7.35211C4.46944 7.39919 4.36325 7.46962 4.27362 7.55928C4.18399 7.64894 4.11271 7.75602 4.06396 7.87426C4.01521 7.9925 3.98996 8.11952 3.9897 8.24788V9.51279H4.4726V8.24788C4.46817 8.18114 4.47717 8.11417 4.49904 8.05114C4.52091 7.98811 4.55519 7.93036 4.59975 7.88147C4.64432 7.83259 4.6982 7.79361 4.75808 7.76697C4.81795 7.74032 4.88253 7.72657 4.9478 7.72657C5.01307 7.72657 5.07765 7.74032 5.13752 7.76697C5.1974 7.79361 5.25128 7.83259 5.29585 7.88147C5.34041 7.93036 5.37469 7.98811 5.39656 8.05114C5.41843 8.11417 5.42743 8.18114 5.423 8.24788V9.51279H5.9114V8.24788C5.91098 8.11985 5.88574 7.99318 5.83714 7.87524C5.78854 7.7573 5.71756 7.65043 5.62831 7.56085C5.53906 7.47127 5.43333 7.40076 5.31726 7.35342C5.20119 7.30608 5.0771 7.28286 4.9522 7.2851ZM12.6324 6.31556C12.5488 6.31551 12.4684 6.34876 12.4083 6.40829C12.3482 6.46782 12.313 6.54897 12.3101 6.6346C12.3101 6.72161 12.3438 6.80506 12.4039 6.86658C12.4639 6.92811 12.5453 6.96267 12.6302 6.96267C12.7151 6.96267 12.7965 6.92811 12.8565 6.86658C12.9166 6.80506 12.9503 6.72161 12.9503 6.6346C12.9483 6.54946 12.914 6.46849 12.8546 6.4089C12.7952 6.34932 12.7155 6.31583 12.6324 6.31556ZM12.386 7.355H12.8744V9.51167H12.386V7.355ZM14.7741 7.532H14.7532C14.6772 7.44974 14.5848 7.38521 14.4823 7.3428C14.3798 7.30039 14.2696 7.2811 14.1592 7.28623C13.8708 7.29933 13.5984 7.42597 13.3989 7.63977C13.1993 7.85356 13.0879 8.13803 13.0879 8.4339C13.0879 8.72977 13.1993 9.01423 13.3989 9.22802C13.5984 9.44182 13.8708 9.56846 14.1592 9.58156C14.271 9.58442 14.382 9.56231 14.4846 9.51675C14.5871 9.47119 14.6788 9.40329 14.7532 9.31776H14.7741V9.51279H15.2625V6.14194H14.7741V7.532ZM14.2054 9.13287C14.0321 9.12324 13.8694 9.044 13.7527 8.91233C13.6359 8.78066 13.5745 8.60715 13.5817 8.42939C13.5779 8.34174 13.591 8.25419 13.6203 8.17177C13.6496 8.08934 13.6946 8.01368 13.7525 7.94913C13.8105 7.88458 13.8804 7.83242 13.9581 7.79566C14.0358 7.7589 14.1199 7.73825 14.2054 7.73492C14.2901 7.73799 14.3734 7.75863 14.4501 7.7956C14.5268 7.83257 14.5954 7.8851 14.6517 7.95001C14.7081 8.01492 14.751 8.09087 14.7779 8.17327C14.8048 8.25566 14.8151 8.34279 14.8082 8.42939C14.8148 8.51637 14.8043 8.60383 14.7774 8.68661C14.7505 8.76938 14.7077 8.8458 14.6515 8.91136C14.5953 8.97691 14.5269 9.03028 14.4503 9.06833C14.3737 9.10637 14.2904 9.12832 14.2054 9.13287ZM11.0363 7.28623C10.8879 7.2812 10.74 7.30701 10.6016 7.36212C10.4632 7.41723 10.3371 7.50049 10.2309 7.60689C10.1248 7.71328 10.0407 7.84061 9.98382 7.98119C9.92695 8.12177 9.89843 8.2727 9.9 8.42488C9.90919 8.72762 10.033 9.01481 10.2452 9.22563C10.4574 9.43644 10.7413 9.55434 11.0369 9.55434C11.3324 9.55434 11.6163 9.43644 11.8285 9.22563C12.0407 9.01481 12.1645 8.72762 12.1737 8.42488C12.1753 8.2726 12.1467 8.12158 12.0898 7.98092C12.0328 7.84026 11.9487 7.71288 11.8424 7.60647C11.7361 7.50006 11.6099 7.41682 11.4713 7.36178C11.3328 7.30674 11.1848 7.28104 11.0363 7.28623ZM11.0363 9.13174C10.9488 9.12914 10.8626 9.10871 10.7828 9.07163C10.703 9.03455 10.6313 8.98158 10.5717 8.91578C10.5121 8.84999 10.4659 8.7727 10.4357 8.68842C10.4056 8.60414 10.3921 8.51455 10.3961 8.42488C10.3925 8.33635 10.4064 8.24799 10.437 8.16512C10.4676 8.08225 10.5142 8.00657 10.5741 7.94263C10.6339 7.8787 10.7058 7.82782 10.7853 7.79307C10.8648 7.75832 10.9504 7.7404 11.0369 7.7404C11.1233 7.7404 11.2089 7.75832 11.2884 7.79307C11.3679 7.82782 11.4398 7.8787 11.4996 7.94263C11.5595 8.00657 11.6061 8.08225 11.6367 8.16512C11.6673 8.24799 11.6812 8.33635 11.6776 8.42488C11.6838 8.60572 11.6198 8.78172 11.4996 8.91424C11.3794 9.04676 11.2127 9.12499 11.0363 9.13174ZM9.3236 14.4778C9.2632 14.4359 9.18907 14.4204 9.11749 14.4345C9.04592 14.4487 8.98276 14.4914 8.9419 14.5533L8.7626 14.8227C8.73186 14.8693 8.71544 14.9243 8.71544 14.9806C8.71544 15.0368 8.73186 15.0918 8.7626 15.1384L8.9397 15.4078C8.96498 15.4462 8.99907 15.4775 9.03898 15.4992C9.07888 15.5208 9.12336 15.532 9.1685 15.5319C9.22292 15.5319 9.27613 15.5154 9.3214 15.4845C9.35138 15.4639 9.37709 15.4374 9.39708 15.4065C9.41706 15.3757 9.43092 15.3411 9.43787 15.3048C9.44481 15.2685 9.44471 15.2311 9.43756 15.1948C9.43041 15.1585 9.41636 15.124 9.3962 15.0933L9.3225 14.9806L9.3962 14.8678C9.43677 14.8061 9.45191 14.7305 9.43831 14.6575C9.42471 14.5844 9.38348 14.5198 9.3236 14.4778ZM11.1089 16.622L10.9989 16.6976L10.8889 16.622C10.8284 16.5803 10.7541 16.565 10.6826 16.5793C10.611 16.5937 10.5479 16.6366 10.5072 16.6987C10.4665 16.7607 10.4515 16.8368 10.4655 16.9102C10.4796 16.9835 10.5215 17.0482 10.582 17.0899L10.8449 17.2714C10.8903 17.3027 10.9437 17.3194 10.9984 17.3194C11.053 17.3194 11.1064 17.3027 11.1518 17.2714L11.4147 17.0899C11.4447 17.0692 11.4704 17.0427 11.4904 17.0119C11.5103 16.9811 11.5242 16.9465 11.5312 16.9102C11.5381 16.8738 11.538 16.8365 11.5308 16.8002C11.5237 16.7639 11.5097 16.7294 11.4895 16.6987C11.4693 16.668 11.4435 16.6416 11.4134 16.6211C11.3833 16.6007 11.3496 16.5865 11.3141 16.5793C11.2787 16.5722 11.2422 16.5723 11.2068 16.5796C11.1714 16.587 11.1378 16.6014 11.1078 16.622H11.1089ZM12.6005 14.869L12.6742 14.9817L12.6005 15.0944C12.5803 15.1251 12.5663 15.1596 12.5591 15.1959C12.552 15.2322 12.5519 15.2696 12.5588 15.3059C12.5658 15.3422 12.5796 15.3768 12.5996 15.4076C12.6196 15.4385 12.6453 15.465 12.6753 15.4856C12.7206 15.5166 12.7738 15.533 12.8282 15.533C12.8733 15.5331 12.9178 15.5219 12.9577 15.5003C12.9976 15.4787 13.0317 15.4473 13.057 15.409L13.2341 15.1395C13.2648 15.0929 13.2813 15.0379 13.2813 14.9817C13.2813 14.9254 13.2648 14.8705 13.2341 14.8239L13.0526 14.5533C13.0118 14.4912 12.9485 14.4484 12.8769 14.4341C12.8052 14.4198 12.7309 14.4353 12.6703 14.4772C12.6098 14.5191 12.568 14.5838 12.5541 14.6573C12.5401 14.7308 12.5553 14.8069 12.5961 14.869H12.6005ZM10.89 13.3391L11 13.2636L11.11 13.3391C11.1552 13.3704 11.2084 13.3873 11.2629 13.3876C11.3217 13.3875 11.379 13.3682 11.4263 13.3323C11.4736 13.2964 11.5084 13.2459 11.5256 13.1883C11.5429 13.1306 11.5416 13.0688 11.522 13.012C11.5025 12.9551 11.4656 12.9062 11.4169 12.8724L11.154 12.6909C11.1086 12.6596 11.0552 12.6429 11.0005 12.6429C10.9459 12.6429 10.8925 12.6596 10.8471 12.6909L10.5842 12.8724C10.5521 12.892 10.5242 12.9181 10.5023 12.9492C10.4804 12.9802 10.4648 13.0155 10.4567 13.0529C10.4485 13.0903 10.4479 13.129 10.4548 13.1667C10.4618 13.2044 10.4761 13.2402 10.497 13.272C10.5179 13.3037 10.5449 13.3308 10.5764 13.3515C10.6078 13.3723 10.6431 13.3862 10.6799 13.3925C10.7168 13.3988 10.7546 13.3973 10.7909 13.3881C10.8272 13.3789 10.8613 13.3622 10.8911 13.3391H10.89ZM11 13.8363C10.7792 13.8363 10.5634 13.9034 10.3798 14.029C10.1962 14.1547 10.0531 14.3334 9.96859 14.5424C9.88406 14.7514 9.86188 14.9815 9.90487 15.2034C9.94787 15.4253 10.0541 15.6292 10.2101 15.7893C10.3662 15.9494 10.565 16.0584 10.7815 16.1027C10.998 16.147 11.2225 16.1245 11.4265 16.0381C11.6305 15.9516 11.805 15.8051 11.9278 15.6171C12.0506 15.4291 12.1163 15.208 12.1165 14.9817C12.1162 14.6782 11.9985 14.3872 11.7892 14.1725C11.5799 13.9578 11.2961 13.8369 11 13.8363ZM11 15.5612C10.888 15.5612 10.7784 15.5271 10.6853 15.4633C10.5921 15.3995 10.5195 15.3088 10.4766 15.2027C10.4337 15.0967 10.4225 14.9799 10.4444 14.8673C10.4662 14.7547 10.5202 14.6512 10.5994 14.57C10.6787 14.4888 10.7796 14.4335 10.8895 14.4111C10.9994 14.3887 11.1133 14.4002 11.2168 14.4442C11.3203 14.4881 11.4088 14.5625 11.471 14.658C11.5333 14.7535 11.5665 14.8657 11.5665 14.9806C11.5662 15.1345 11.5064 15.282 11.4003 15.3908C11.2941 15.4996 11.1502 15.5609 11 15.5612ZM20.625 0H1.375C1.01033 0 0.660591 0.148471 0.402728 0.412751C0.144866 0.677031 0 1.03547 0 1.40922V14.9377C0 15.3115 0.144866 15.6699 0.402728 15.9342C0.660591 16.1985 1.01033 16.3469 1.375 16.3469H8.3765C8.62179 16.8441 8.99681 17.2618 9.45986 17.5537C9.92291 17.8455 10.4559 18 10.9995 18C11.543 18 12.076 17.8455 12.539 17.5537C13.0021 17.2618 13.3771 16.8441 13.6224 16.3469H20.625C20.9897 16.3469 21.3394 16.1985 21.5973 15.9342C21.8551 15.6699 22 15.3115 22 14.9377V1.40922C22 1.03547 21.8551 0.677031 21.5973 0.412751C21.3394 0.148471 20.9897 0 20.625 0ZM11 17.4315C10.5269 17.4317 10.0644 17.2881 9.671 17.0189C9.27756 16.7497 8.97088 16.3669 8.78975 15.919C8.60861 15.4711 8.56116 14.9782 8.6534 14.5027C8.74563 14.0272 8.97342 13.5903 9.30793 13.2475C9.64243 12.9047 10.0686 12.6712 10.5326 12.5767C10.9966 12.4822 11.4775 12.5308 11.9146 12.7164C12.3516 12.9021 12.725 13.2164 12.9877 13.6196C13.2504 14.0228 13.3905 14.4969 13.3903 14.9817C13.3894 15.6311 13.1373 16.2537 12.6892 16.713C12.2412 17.1722 11.6337 17.4306 11 17.4315ZM21.45 14.9377C21.45 15.162 21.3631 15.377 21.2084 15.5356C21.0536 15.6942 20.8438 15.7833 20.625 15.7833H13.8347C13.9468 15.3686 13.9709 14.9341 13.9055 14.509C13.8401 14.084 13.6866 13.6782 13.4555 13.319C13.2243 12.9598 12.9208 12.6554 12.5654 12.4264C12.2099 12.1974 11.8107 12.0491 11.3947 11.9913C10.9786 11.9336 10.5553 11.9678 10.1532 12.0917C9.75115 12.2156 9.3796 12.4262 9.06357 12.7095C8.74753 12.9928 8.49433 13.3421 8.32099 13.7341C8.14765 14.126 8.05818 14.5514 8.0586 14.9817C8.06019 15.2531 8.09718 15.523 8.1686 15.7844H1.375C1.1562 15.7844 0.946355 15.6953 0.791637 15.5367C0.63692 15.3782 0.55 15.1631 0.55 14.9389V1.41035C0.55 1.1861 0.63692 0.971033 0.791637 0.812465C0.946355 0.653897 1.1562 0.564815 1.375 0.564815H20.625C20.8438 0.564815 21.0536 0.653897 21.2084 0.812465C21.3631 0.971033 21.45 1.1861 21.45 1.41035V14.9377Z" fill="#D6D6D6"/>
</svg>
