<svg width="400" height="400" viewBox="0 0 400 400" fill="none" xmlns="http://www.w3.org/2000/svg">
<rect x="2" y="2" width="398" height="398" rx="125" fill="black"/>
<path d="M111.205 128.545L123.989 231.102H125.125L172 128.545H216.602L144.443 274H90.4659L66.6023 128.545H111.205ZM206.748 274L211.435 245.591L273.225 200.705C277.344 197.722 280.896 194.928 283.879 192.324C286.909 189.672 289.347 186.95 291.194 184.156C293.04 181.363 294.248 178.261 294.816 174.852C295.432 171.112 295.147 167.916 293.964 165.264C292.827 162.565 290.981 160.506 288.424 159.085C285.867 157.665 282.79 156.955 279.191 156.955C275.545 156.955 272.207 157.688 269.177 159.156C266.147 160.624 263.613 162.778 261.577 165.619C259.589 168.46 258.263 171.917 257.6 175.989H220.1C221.805 165.761 225.569 156.955 231.393 149.568C237.264 142.182 244.698 136.5 253.694 132.523C262.737 128.545 272.894 126.557 284.163 126.557C295.81 126.557 305.612 128.427 313.566 132.168C321.521 135.861 327.273 141.069 330.825 147.793C334.423 154.516 335.441 162.4 333.879 171.443C332.932 177.03 330.825 182.57 327.558 188.062C324.338 193.555 319.153 199.663 312.004 206.386C304.901 213.062 295.053 221.017 282.458 230.25L266.975 241.614L266.833 242.466H323.651L318.396 274H206.748Z" fill="white"/>
</svg>
