<svg width="22" height="13" viewBox="0 0 22 13" fill="none" xmlns="http://www.w3.org/2000/svg">
<g clip-path="url(#clip0_1473_4)">
<path d="M16.6 4.10213L18.44 0.92213C18.6 0.61213 18.48 0.23213 18.18 0.07213C18.0391 -0.00129546 17.8759 -0.0194368 17.7224 0.0212639C17.5688 0.0619645 17.436 0.15857 17.35 0.29213L15.47 3.53213C14.0559 2.9331 12.5358 2.62441 11 2.62441C9.46423 2.62441 7.94413 2.9331 6.53 3.53213L4.65 0.29213C4.55909 0.152643 4.41763 0.053855 4.25536 0.0165532C4.0931 -0.0207487 3.92269 0.0063437 3.78 0.09213C3.5 0.27213 3.41 0.63213 3.56 0.92213L5.4 4.10213C3.87336 4.97424 2.5832 6.20652 1.64198 7.69155C0.700762 9.17659 0.137056 10.8693 0 12.6221H22C21.8629 10.8693 21.2992 9.17659 20.358 7.69155C19.4168 6.20652 18.1266 4.97424 16.6 4.10213ZM6 9.87213C5.66848 9.87213 5.35054 9.74043 5.11612 9.50601C4.8817 9.27159 4.75 8.95365 4.75 8.62213C4.75 8.29061 4.8817 7.97267 5.11612 7.73825C5.35054 7.50383 5.66848 7.37213 6 7.37213C6.33152 7.37213 6.64946 7.50383 6.88388 7.73825C7.1183 7.97267 7.25 8.29061 7.25 8.62213C7.25 8.95365 7.1183 9.27159 6.88388 9.50601C6.64946 9.74043 6.33152 9.87213 6 9.87213ZM16 9.87213C15.6685 9.87213 15.3505 9.74043 15.1161 9.50601C14.8817 9.27159 14.75 8.95365 14.75 8.62213C14.75 8.29061 14.8817 7.97267 15.1161 7.73825C15.3505 7.50383 15.6685 7.37213 16 7.37213C16.3315 7.37213 16.6495 7.50383 16.8839 7.73825C17.1183 7.97267 17.25 8.29061 17.25 8.62213C17.25 8.95365 17.1183 9.27159 16.8839 9.50601C16.6495 9.74043 16.3315 9.87213 16 9.87213Z" fill="#D6D6D6"/>
</g>
<defs>
<clipPath id="clip0_1473_4">
<rect width="22" height="13" fill="white"/>
</clipPath>
</defs>
</svg>
