<svg width="18" height="18" viewBox="0 0 18 18" fill="none" xmlns="http://www.w3.org/2000/svg">
<g clip-path="url(#clip0_1487_23)">
<path d="M17.64 2.396C17.471 1.952 17.066 1.327 16.492 0.883C16.155 0.63 15.772 0.383 15.232 0.225C14.649 0.0559999 13.928 0 13.05 0H4.95C4.067 0 3.352 0.056 2.773 0.23C2.233 0.394 1.833 0.636 1.508 0.889C1.00124 1.2873 0.604125 1.80796 0.354 2.402C0.0060001 3.296 0 4.309 0 4.95V13.05C0 13.691 0.0060001 14.704 0.354 15.604C0.573443 16.1212 0.903995 16.5838 1.32221 16.959C1.74043 17.3342 2.23608 17.6128 2.774 17.775C3.353 17.944 4.067 18 4.95 18H13.05C13.933 18 14.648 17.944 15.227 17.77C15.767 17.606 16.167 17.364 16.492 17.111C16.9988 16.7127 17.3959 16.192 17.646 15.598C18 14.704 18 13.686 18 13.044V4.944C18 4.304 17.994 3.291 17.646 2.391L17.64 2.396ZM3.566 12.375H2.896V8.375H3.566V12.375ZM3.234 7.701C3.12367 7.701 3.01786 7.65717 2.93984 7.57916C2.86183 7.50114 2.818 7.39533 2.818 7.285C2.818 7.17467 2.86183 7.06886 2.93984 6.99084C3.01786 6.91283 3.12367 6.869 3.234 6.869C3.34488 6.86846 3.45147 6.91179 3.53052 6.98954C3.60958 7.06728 3.65468 7.17313 3.656 7.284C3.65417 7.39489 3.60897 7.50065 3.53008 7.5786C3.45119 7.65655 3.3449 7.70049 3.234 7.701ZM7.256 12.476C5.49 12.476 4.376 11.216 4.376 9.208C4.376 7.2 5.49 5.934 7.256 5.934C9.023 5.934 10.136 7.2 10.136 9.208C10.136 11.216 9.023 12.476 7.256 12.476ZM13.084 12.476C11.756 12.476 10.823 11.745 10.761 10.654H11.363C11.43 11.414 12.144 11.931 13.14 11.931C14.09 11.931 14.771 11.413 14.771 10.699C14.771 10.109 14.361 9.754 13.421 9.518L12.634 9.315C11.458 9.017 10.935 8.522 10.935 7.684C10.935 6.66 11.857 5.929 13.106 5.929C14.344 5.929 15.244 6.66 15.283 7.667H14.681C14.625 6.953 13.989 6.474 13.089 6.474C12.212 6.474 11.559 6.964 11.559 7.661C11.559 8.207 11.953 8.528 12.887 8.764L13.573 8.938C14.85 9.258 15.384 9.748 15.384 10.631C15.384 11.745 14.49 12.476 13.084 12.476ZM9.524 9.208C9.524 10.868 8.646 11.919 7.256 11.919C5.866 11.919 4.995 10.867 4.995 9.209C4.995 7.543 5.867 6.491 7.256 6.491C8.645 6.491 9.523 7.543 9.523 9.208" fill="#D6D6D6"/>
</g>
<defs>
<clipPath id="clip0_1487_23">
<rect width="18" height="18" fill="white"/>
</clipPath>
</defs>
</svg>
