<svg width="18" height="20" viewBox="0 0 18 20" fill="none" xmlns="http://www.w3.org/2000/svg">
<path d="M9.42043 0C9.29084 0.000833333 9.1573 0.00645833 9.0198 0.016875C5.49793 0.29625 6.4323 4.02375 6.3798 5.26688C6.3148 6.175 6.1298 6.89438 5.5048 7.78375C4.76543 8.65938 3.73043 10.0756 3.23918 11.5494C3.00855 12.2425 2.8973 12.9562 3.00168 13.6269C2.96203 13.6556 2.92971 13.6933 2.9073 13.7369C2.6923 13.9619 2.5323 14.2388 2.35668 14.4369C2.19105 14.6025 1.95355 14.6588 1.6923 14.7694C1.4323 14.8825 1.1423 14.9937 0.972927 15.3387C0.897927 15.4956 0.858552 15.6644 0.862302 15.8406C0.862302 16.0031 0.885427 16.1725 0.907927 16.2863C0.957302 16.6181 1.00543 16.8919 0.940427 17.0938C0.732302 17.6594 0.709802 18.0469 0.852927 18.3306C0.998552 18.6106 1.29855 18.7212 1.63355 18.8325C2.31105 18.9981 3.22543 18.9456 3.94855 19.33C4.71918 19.7206 5.50418 19.89 6.12918 19.7244C6.34476 19.676 6.54687 19.5803 6.72082 19.4441C6.89477 19.3078 7.03619 19.1346 7.1348 18.9369C7.62293 18.9337 8.1598 18.7119 9.01668 18.6569C9.59918 18.6075 10.3286 18.8812 11.1648 18.8225C11.1873 18.9369 11.2167 18.9881 11.2623 19.1025V19.1056C11.5873 19.7531 12.1898 20.0463 12.8348 19.9975C13.4754 19.9456 14.1592 19.5519 14.7123 18.9075C15.2398 18.2725 16.1154 18.005 16.6948 17.6575C16.9848 17.4906 17.2192 17.2669 17.2354 16.9444C17.2548 16.6125 17.0698 16.2675 16.6429 15.7987V15.7169L16.6398 15.7138C16.4967 15.5481 16.4317 15.2681 16.3567 14.9431C16.2848 14.6075 16.2067 14.2888 15.9467 14.0706C15.8942 14.025 15.8423 14.015 15.7873 13.96C15.7409 13.9278 15.6867 13.9088 15.6304 13.905C15.9886 12.84 15.8486 11.7825 15.4836 10.8281C15.0411 9.65313 14.2629 8.62813 13.6736 7.925C13.0092 7.08813 12.3586 6.29437 12.3717 5.11937C12.3942 3.325 12.5698 0.00875 9.41918 0.001875L9.42043 0ZM9.8598 2.83812H9.87293C10.0486 2.83812 10.2011 2.89063 10.3579 3.00125C10.5173 3.11438 10.6348 3.27812 10.7223 3.44687C10.8104 3.66187 10.8567 3.8275 10.8623 4.04875C10.8623 4.03313 10.8654 4.01625 10.8654 4.00063V4.08812C10.8654 4.08125 10.8623 4.07563 10.8623 4.06875L10.8592 4.04875C10.8592 4.25125 10.8173 4.45312 10.7361 4.63813C10.698 4.7437 10.6367 4.83939 10.5567 4.91812C10.5346 4.90521 10.5106 4.89333 10.4848 4.8825C10.3973 4.84312 10.3192 4.83063 10.2473 4.7725C10.188 4.74934 10.127 4.73074 10.0648 4.71687C10.1042 4.66875 10.1854 4.60625 10.2179 4.55125C10.2604 4.44688 10.2829 4.33312 10.2898 4.21625V4.19937C10.2911 4.08658 10.2734 3.97437 10.2373 3.8675C10.2017 3.75688 10.1567 3.70062 10.0879 3.59062C10.0161 3.535 9.94793 3.48 9.86293 3.48H9.85043C9.7723 3.48 9.70355 3.5025 9.6323 3.59062C9.55456 3.66808 9.49648 3.76301 9.46293 3.8675C9.41789 3.97262 9.39248 4.0851 9.38793 4.19937V4.21625C9.38793 4.29062 9.3948 4.36563 9.40355 4.44063C9.24105 4.38563 9.03918 4.32625 8.89605 4.27125C8.88801 4.21639 8.88362 4.16106 8.88293 4.10562V4.08875C8.87687 3.86867 8.91933 3.64995 9.0073 3.44813C9.07543 3.26563 9.19918 3.10875 9.36543 3.005C9.50793 2.89813 9.68043 2.83938 9.8598 2.83938V2.83812ZM7.3923 2.8875H7.42168C7.53918 2.8875 7.64668 2.92687 7.75418 2.99812C7.8773 3.10562 7.97605 3.23875 8.04105 3.385C8.11605 3.55187 8.15793 3.72063 8.17105 3.94188V3.945C8.17418 4.05562 8.17418 4.115 8.16793 4.16687V4.235L8.0998 4.25438C7.97293 4.3 7.8723 4.365 7.77043 4.42125C7.78001 4.34583 7.78105 4.27187 7.77355 4.19937V4.18625C7.76418 4.07625 7.74105 4.02063 7.70543 3.90938C7.67867 3.82386 7.63048 3.74662 7.56543 3.685C7.54521 3.66684 7.52161 3.65285 7.49598 3.64385C7.47034 3.63484 7.44318 3.63098 7.41605 3.6325H7.39605C7.33793 3.63562 7.28855 3.665 7.24355 3.74312C7.18914 3.80693 7.15421 3.88503 7.14293 3.96812C7.1198 4.05562 7.11293 4.15 7.12293 4.245V4.25438C7.13293 4.36875 7.1523 4.42438 7.19105 4.53438C7.21625 4.61914 7.26349 4.6957 7.32793 4.75625C7.33793 4.76625 7.3448 4.77312 7.3573 4.77562C7.29918 4.825 7.2598 4.835 7.21168 4.89C7.17855 4.91312 7.14355 4.9425 7.10105 4.94938C7.01448 4.84503 6.93809 4.73265 6.87293 4.61375C6.79274 4.4387 6.74853 4.24933 6.74293 4.05688C6.73084 3.86885 6.75286 3.68019 6.80793 3.5C6.8573 3.3375 6.93543 3.18438 7.04543 3.05438C7.15293 2.94375 7.26043 2.88875 7.39355 2.88875L7.3923 2.8875ZM8.5348 4.31C8.81168 4.31 9.14418 4.36188 9.5473 4.64188C9.79168 4.80875 9.98418 4.86687 10.4267 5.02937C10.6417 5.14375 10.7648 5.25437 10.8267 5.365V5.25437C10.8564 5.31475 10.8729 5.38073 10.8751 5.44797C10.8774 5.5152 10.8654 5.58215 10.8398 5.64438C10.7354 5.905 10.4098 6.18188 9.95168 6.3475V6.35063C9.7298 6.46125 9.5348 6.6275 9.30668 6.73813C9.07605 6.84875 8.8148 6.9825 8.46355 6.96C8.33636 6.96546 8.20929 6.94658 8.08918 6.90437C7.99684 6.85481 7.9077 6.7995 7.8223 6.73875C7.6598 6.62812 7.5198 6.46187 7.31168 6.35125V6.34812H7.30855C6.97293 6.14312 6.79418 5.92125 6.73543 5.75562C6.68043 5.53125 6.7323 5.36562 6.89855 5.255C7.08355 5.14437 7.21355 5.03 7.29855 4.975C7.38605 4.91313 7.41918 4.89 7.44543 4.8675H7.44855V4.86437C7.58855 4.695 7.80918 4.47375 8.14855 4.3625C8.26168 4.33313 8.39293 4.31062 8.53543 4.31062L8.5348 4.31ZM10.8654 6.09312C11.1654 7.275 11.8654 8.99063 12.3148 9.82063C12.5523 10.2663 13.0273 11.2038 13.2323 12.3406C13.3627 12.3377 13.505 12.356 13.6592 12.3956C14.1992 11.0025 13.2067 9.505 12.7542 9.08813C12.5686 8.9225 12.5592 8.81125 12.6498 8.81125C13.1417 9.25375 13.7854 10.1206 14.0198 11.1063C14.1273 11.5519 14.1542 12.0281 14.0398 12.4994C14.0948 12.5219 14.1504 12.5512 14.2092 12.5544C15.0686 13.0012 15.3873 13.3362 15.2342 13.8369V13.8013C15.1861 13.7988 15.1336 13.8013 15.0848 13.8013H15.0717C15.1992 13.4113 14.9192 13.1113 14.1836 12.7794C13.4217 12.4475 12.8129 12.4994 12.7086 13.1669C12.7009 13.2045 12.6967 13.2428 12.6961 13.2812C12.6367 13.3006 12.5786 13.3231 12.5204 13.3331C12.1623 13.5581 11.9698 13.8931 11.8598 14.3231C11.7523 14.7687 11.7198 15.2863 11.6904 15.8825C11.6704 16.1625 11.5473 16.5819 11.4229 17.0081C10.1729 17.9031 8.43793 18.2906 6.9673 17.2881C6.87314 17.1248 6.76126 16.9762 6.63168 16.8425C6.56933 16.739 6.49156 16.6456 6.40105 16.5656C6.55355 16.5656 6.68418 16.54 6.78855 16.51C6.90765 16.4524 7.00134 16.353 7.05168 16.2306C7.1398 16.0087 7.05168 15.6506 6.76168 15.26C6.47605 14.8731 5.9873 14.4331 5.27418 13.9944C4.7473 13.6625 4.45105 13.2688 4.31418 12.8319C4.1773 12.3863 4.19668 11.9269 4.30105 11.4619C4.50605 10.57 5.03043 9.70125 5.36605 9.15688C5.45355 9.105 5.39543 9.27125 5.02418 9.97125C4.6948 10.5963 4.07355 12.0513 4.9223 13.1806C4.9545 12.3557 5.13775 11.5438 5.46293 10.785C5.93105 9.72063 6.9148 7.86563 6.99293 6.39437C7.0323 6.42687 7.1723 6.50875 7.23355 6.56375C7.41293 6.67437 7.54918 6.84062 7.72543 6.95125C7.90105 7.11687 8.1223 7.23125 8.4548 7.23125C8.48689 7.23375 8.51709 7.23479 8.54543 7.23437C8.8873 7.23437 9.1548 7.12375 9.37543 7.0125C9.61605 6.89813 9.8123 6.7325 9.99355 6.6775H9.99668C10.3842 6.56688 10.6936 6.34188 10.8661 6.09438L10.8654 6.09312ZM12.6886 13.5581C12.7211 14.0588 12.9754 14.5963 13.4242 14.7063C13.9123 14.8169 14.6186 14.4294 14.9148 14.0688L15.0904 14.0619C15.3536 14.055 15.5723 14.0688 15.7961 14.2838L15.7992 14.2869C15.9717 14.4525 16.0536 14.7294 16.1248 15.0162C16.1967 15.3512 16.2517 15.6669 16.4667 15.9044C16.8698 16.3438 17.0036 16.6594 16.9973 16.855C16.9842 17.0725 16.8404 17.1831 16.5804 17.3494C16.0561 17.685 15.1254 17.9419 14.5329 18.6588C14.0179 19.2738 13.3904 19.6087 12.8361 19.6512C12.2829 19.6969 11.8042 19.4856 11.5242 18.9031L11.5211 18.9C11.3454 18.5675 11.4204 18.0469 11.5667 17.4931C11.7136 16.9363 11.9248 16.3706 11.9542 15.9113C11.9836 15.3156 12.0161 14.7981 12.1136 14.3969C12.2142 14.0094 12.3711 13.7325 12.6511 13.58L12.6867 13.56L12.6886 13.5581ZM3.6748 13.6H3.6848C3.73022 13.5992 3.77355 13.6035 3.8148 13.6131C4.1273 13.6588 4.40418 13.89 4.66793 14.2381L5.42605 15.625L5.42918 15.6281C5.63105 16.0706 6.0573 16.5131 6.41855 16.9925C6.78043 17.49 7.06043 17.9356 7.02793 18.3006V18.3075C6.97855 18.9256 6.6273 19.2606 6.09043 19.385C5.55293 19.4956 4.82355 19.385 4.0948 18.9975C3.28793 18.5519 2.3273 18.6069 1.7123 18.4956C1.40668 18.4406 1.2048 18.3262 1.1098 18.1606C1.01918 17.995 1.01543 17.6588 1.21418 17.135V17.1325C1.31168 16.8525 1.24105 16.5044 1.19168 16.1981C1.14605 15.8656 1.12355 15.6081 1.2273 15.4163C1.36043 15.1363 1.55918 15.0844 1.80293 14.9706C2.0473 14.86 2.3373 14.805 2.5648 14.58H2.56793V14.5769C2.7798 14.3562 2.9398 14.0794 3.1248 13.88C3.28168 13.7106 3.44043 13.6 3.6748 13.6ZM9.6423 6.03813C9.28043 6.20375 8.85418 6.48375 8.40168 6.48375C7.94918 6.48375 7.59418 6.26312 7.3373 6.09625C7.2073 5.98312 7.10293 5.87187 7.0248 5.81625C6.88793 5.70625 6.90418 5.53688 6.96293 5.53688C7.05355 5.54938 7.07043 5.65 7.12855 5.70625C7.21043 5.76125 7.30793 5.87187 7.42793 5.98312C7.6723 6.14875 7.99793 6.37312 8.40105 6.37312C8.80543 6.37312 9.28043 6.14875 9.56668 5.98312C9.72918 5.8725 9.9373 5.70625 10.1067 5.59563C10.2367 5.48125 10.2311 5.37063 10.3373 5.37063C10.4448 5.38375 10.3673 5.48125 10.2173 5.6475C10.0642 5.76188 9.8298 5.9275 9.64168 6.03813H9.6423ZM8.74043 4.71687V4.70125C8.7373 4.68437 8.7498 4.66562 8.76605 4.65875C8.82418 4.62312 8.91543 4.63563 8.98105 4.66188C9.03293 4.66188 9.11418 4.71687 9.10793 4.775C9.10105 4.81437 9.03605 4.83063 8.99355 4.83063C8.94855 4.83063 8.91543 4.795 8.87668 4.7725C8.83418 4.75938 8.75293 4.76562 8.74043 4.71687ZM8.28105 4.71687C8.26418 4.76625 8.18605 4.75938 8.14418 4.7725C8.1048 4.795 8.0723 4.83063 8.02668 4.83063C7.98418 4.83063 7.91605 4.81375 7.9123 4.7725C7.90668 4.71688 7.98418 4.66188 8.03668 4.66188C8.1048 4.635 8.18918 4.6225 8.25418 4.65875C8.2673 4.66562 8.28418 4.68437 8.2773 4.70125V4.71687H8.28105Z" fill="#D6D6D6"/>
</svg>
