<svg width="26" height="26" viewBox="0 0 26 26" fill="none" xmlns="http://www.w3.org/2000/svg">
<path d="M23.9341 18.9469C23.3361 20.2709 23.0501 20.8629 22.2821 22.0329C21.2091 23.6669 19.6941 25.7059 17.8211 25.7199C16.1551 25.7339 15.7251 24.6329 13.4641 24.6509C11.2031 24.6619 10.7321 25.7399 9.06411 25.7229C7.19111 25.7059 5.75711 23.8689 4.68311 22.2379C1.68011 17.6629 1.36311 12.3009 3.21911 9.44785C4.53211 7.42485 6.61011 6.23686 8.56111 6.23686C10.5481 6.23686 11.7971 7.32886 13.4401 7.32886C15.0341 7.32886 16.0051 6.23386 18.3031 6.23386C20.0411 6.23386 21.8791 7.18085 23.1921 8.81485C18.8961 11.1689 19.5941 17.3049 23.9341 18.9469ZM16.5591 4.40786C17.3951 3.33486 18.0291 1.82086 17.7991 0.276855C16.4351 0.369855 14.8401 1.24086 13.9081 2.36886C13.0641 3.39586 12.3641 4.92186 12.6371 6.39786C14.1251 6.44586 15.6651 5.55886 16.5591 4.40786Z" fill="#D6D6D6"/>
</svg>
